<svg xmlns="http://www.w3.org/2000/svg" viewBox="0 0 512 512" role="img" aria-labelledby="title desc">
  <title id="title">DeepSignal DS monogram</title>
  <desc id="desc">A minimal geometric DeepSignal app icon with a DS monogram and subtle cyan signal flow.</desc>
  <defs>
    <linearGradient id="shell" x1="96" y1="52" x2="420" y2="456" gradientUnits="userSpaceOnUse">
      <stop offset="0" stop-color="#112436"/>
      <stop offset="0.56" stop-color="#07111d"/>
      <stop offset="1" stop-color="#03070d"/>
    </linearGradient>
    <linearGradient id="mark" x1="96" y1="92" x2="416" y2="420" gradientUnits="userSpaceOnUse">
      <stop offset="0" stop-color="#f7fdff"/>
      <stop offset="0.42" stop-color="#9ff3ff"/>
      <stop offset="1" stop-color="#28bdf1"/>
    </linearGradient>
    <filter id="cyanGlow" x="-16%" y="-16%" width="132%" height="132%" color-interpolation-filters="sRGB">
      <feDropShadow dx="0" dy="0" stdDeviation="5" flood-color="#51dcff" flood-opacity="0.38"/>
    </filter>
  </defs>
  <rect width="512" height="512" rx="112" fill="#02060b"/>
  <rect x="28" y="28" width="456" height="456" rx="94" fill="url(#shell)" stroke="#2a5265" stroke-width="2"/>
  <path d="M124 130H236C310 130 354 179 354 256C354 333 310 382 236 382H124V130ZM184 186V326H236C276 326 296 300 296 256C296 212 276 186 236 186H184Z" fill="url(#mark)" filter="url(#cyanGlow)"/>
  <path d="M376 153H280C243 153 220 172 220 202C220 231 240 246 287 253L319 258C387 269 421 304 421 356C421 399 389 424 336 424H199V365H337C354 365 363 358 363 346C363 333 352 326 322 321L286 316C204 303 163 266 163 206C163 137 213 88 288 88H376V153Z" fill="#dffbff" opacity="0.14"/>
  <path d="M368 144H286C250 144 229 163 229 195C229 226 251 241 300 248L325 252C392 262 425 294 425 346C425 397 389 428 329 428H205V368H328C350 368 363 358 363 341C363 324 348 315 314 310L286 306C214 294 178 260 178 204C178 129 230 84 306 84H368V144Z" fill="none" stroke="url(#mark)" stroke-width="30" stroke-linejoin="round" stroke-linecap="round" filter="url(#cyanGlow)"/>
  <path d="M251 195H392M227 340H356" fill="none" stroke="#07111d" stroke-width="32" stroke-linecap="round" opacity="0.9"/>
  <path d="M254 196H388M232 340H352" fill="none" stroke="#7be9ff" stroke-width="8" stroke-linecap="round" opacity="0.82"/>
  <circle cx="388" cy="196" r="9" fill="#c9f8ff"/>
  <circle cx="232" cy="340" r="8" fill="#67e4ff"/>
</svg>
