<svg xmlns="http://www.w3.org/2000/svg" viewBox="0 0 640 160" role="img" aria-labelledby="title desc">
  <title id="title">DeepSignal</title>
  <desc id="desc">DeepSignal horizontal logo with a DS monogram and wordmark.</desc>
  <defs>
    <linearGradient id="iconShell" x1="12" y1="8" x2="140" y2="148" gradientUnits="userSpaceOnUse">
      <stop offset="0" stop-color="#112436"/>
      <stop offset="1" stop-color="#03070d"/>
    </linearGradient>
    <linearGradient id="iconMark" x1="28" y1="22" x2="128" y2="138" gradientUnits="userSpaceOnUse">
      <stop offset="0" stop-color="#f7fdff"/>
      <stop offset="0.48" stop-color="#91f0ff"/>
      <stop offset="1" stop-color="#20b9ee"/>
    </linearGradient>
    <linearGradient id="word" x1="176" y1="36" x2="604" y2="120" gradientUnits="userSpaceOnUse">
      <stop offset="0" stop-color="#f7fdff"/>
      <stop offset="0.72" stop-color="#c7eff8"/>
      <stop offset="1" stop-color="#81dff4"/>
    </linearGradient>
  </defs>
  <rect x="8" y="8" width="144" height="144" rx="32" fill="#02060b"/>
  <rect x="16" y="16" width="128" height="128" rx="27" fill="url(#iconShell)" stroke="#2a5265" stroke-width="1.5"/>
  <path d="M41 45H74C96 45 109 59 109 80C109 101 96 115 74 115H41V45ZM58 61V99H74C85 99 92 92 92 80C92 68 85 61 74 61H58Z" fill="url(#iconMark)"/>
  <path d="M116 48H88C77 48 71 53 71 61C71 69 78 73 92 75L100 76C121 79 131 89 131 105C131 121 120 130 101 130H64V113H100C107 113 111 110 111 105C111 100 106 97 96 96L88 94C66 90 55 80 55 63C55 41 71 28 94 28H116V48Z" fill="none" stroke="url(#iconMark)" stroke-width="9" stroke-linejoin="round" stroke-linecap="round"/>
  <path d="M77 61H122M70 105H108" fill="none" stroke="#07111d" stroke-width="10" stroke-linecap="round"/>
  <path d="M78 61H120M72 105H106" fill="none" stroke="#95f2ff" stroke-width="2.5" stroke-linecap="round"/>
  <text x="180" y="96" fill="url(#word)" font-family="Segoe UI, Inter, Arial, sans-serif" font-size="58" font-weight="750" letter-spacing="0">DeepSignal</text>
  <text x="184" y="124" fill="#7fa5b7" font-family="Segoe UI, Inter, Arial, sans-serif" font-size="16" font-weight="600" letter-spacing="2.4">ENCRYPTED SIGNAL INBOX</text>
</svg>
